<svg id="Layer_1" data-name="Layer 1" xmlns="http://www.w3.org/2000/svg" viewBox="0 0 1970.13 1131.91"><defs><style>.cls-1{fill:#fff;}</style></defs><title>laptop-outline-2</title><path class="cls-1" d="M336.16-956a10,10,0,0,0-10-10,10,10,0,0,0-10,10,10,10,0,0,0,10,10A10,10,0,0,0,336.16-956Zm-15.92,0a6,6,0,0,1,6-6,6,6,0,0,1,6,6,6,6,0,0,1-6,6A6,6,0,0,1,320.24-956Z" transform="translate(658.88 1007.94)"/><path class="cls-1" d="M-397.55-924.53v900a5,5,0,0,0,5,5h1440a5,5,0,0,0,5-5v-900a5,5,0,0,0-5-5h-1440A5,5,0,0,0-397.55-924.53Zm1445,900h-1440v-900h1440v900Z" transform="translate(658.88 1007.94)"/><path class="cls-1" d="M8.75,98.29c-2.08-1.43-7.69-1.94-11.86-1.94l-1.51,0c-8.25.24-8.78,2.06-9,2.94a2.52,2.52,0,0,0,1.14,2.82c2.08,1.43,7.69,1.94,11.86,1.94l1.51,0c8.25-.24,8.78-2.06,9-2.94A2.52,2.52,0,0,0,8.75,98.29Z" transform="translate(658.88 1007.94)"/><path class="cls-1" d="M647.36,96.38l-1.51,0c-4.17,0-9.78.51-11.86,1.93a2.52,2.52,0,0,0-1.15,2.82c0.26,0.88.79,2.7,9,2.94l1.51,0h0c4.17,0,9.78-.51,11.86-1.94a2.52,2.52,0,0,0,1.14-2.82C656.14,98.44,655.6,96.62,647.36,96.38Z" transform="translate(658.88 1007.94)"/><path class="cls-1" d="M-472.16,72.76a58,58,0,0,1-2.45-16.7v-1002a58,58,0,0,1,58-58h1486a58,58,0,0,1,58,58v1002a57.93,57.93,0,0,1-2.45,16.7h4.15a61.79,61.79,0,0,0,2.3-16.7v-1002a62.07,62.07,0,0,0-62-62h-1486a62.07,62.07,0,0,0-62,62v1002a61.82,61.82,0,0,0,2.3,16.7h4.15Z" transform="translate(658.88 1007.94)"/><path class="cls-1" d="M1116.51,72.76h3.17a52.81,52.81,0,0,0,2.71-16.7v-1002a53.06,53.06,0,0,0-53-53h-1486a53.06,53.06,0,0,0-53,53v1002a52.78,52.78,0,0,0,2.71,16.7h3.17a49.75,49.75,0,0,1-2.88-16.7v-1002a50.06,50.06,0,0,1,50-50h1486a50.06,50.06,0,0,1,50,50v1002A49.77,49.77,0,0,1,1116.51,72.76Z" transform="translate(658.88 1007.94)"/><path class="cls-1" d="M1311.24,81.34v-4.5a4,4,0,0,0-4-4H483.38a4,4,0,0,0-2.5.88H159.75a4,4,0,0,0-2.5-.87H-654.88a4,4,0,0,0-4,4v3.54a6.54,6.54,0,0,0,2,4.56h0c1.43,1.49,5.76,6,36.34,12.9,19,4.28,44.17,8.56,72.66,12.4C-483.07,119-412.09,124-353.13,124H962c121.47,0,205.42-8.62,254.45-15.86,48.41-7.14,86.59-16.6,93.11-23l0.06-.07,0,0c0.08-.08.13-0.16,0.2-0.24l0.09-.11A5,5,0,0,0,1311.24,81.34Zm-4,0a1.35,1.35,0,0,1-.47.84H487.38V76.84h819.86v4.5ZM483.38,77.72v4.47c-1.95,2-5.09,3.59-11,3.59H170.81c-5.86,0-11.6-1.64-13.55-3.59h0V77.72H483.38Zm-1138.27-.87H153.26v5.34H-654a2.72,2.72,0,0,1-.91-1.8V76.84ZM962,120H-353.13c-118.19,0-259.12-19.74-293.76-33.77H155.88c3.71,2.46,10,3.59,14.92,3.59H472.43c5.28,0,9.37-1.18,12.45-3.59h814C1269,97.35,1158.89,120,962,120Z" transform="translate(658.88 1007.94)"/></svg>