<svg id="Layer_1" data-name="Layer 1" xmlns="http://www.w3.org/2000/svg" viewBox="0 0 460 305"><defs><style>.cls-1{font-size:36px;fill:#2073f0;font-family:Book Antiqua;}.cls-2{fill:#d74833;}.cls-3{fill:#ffbd17;}.cls-4{fill:#06a35e;}.cls-5{fill:none;stroke-width:0.5px;}.cls-5,.cls-9{stroke:#d9d9d9;stroke-miterlimit:10;}.cls-20,.cls-22,.cls-6{fill:#6d6e71;}.cls-7{fill:#fff;}.cls-8{fill:#e3e5e8;}.cls-9{fill:#f4f4f4;stroke-width:0.25px;}.cls-10{font-size:3.95px;fill:#58595b;font-family:Gisha;}.cls-11{font-size:3.39px;}.cls-12{fill:#939393;}.cls-13{fill:#f1f2f2;}.cls-14{fill:#e6e7e8;}.cls-15{fill:#bcbec0;}.cls-16,.cls-21{fill:#a7a9ac;}.cls-17{fill:#e76a58;}.cls-18{fill:#fec052;}.cls-19{fill:#81d154;}.cls-20{font-size:6px;}.cls-20,.cls-21,.cls-22{font-family:Arial;}.cls-21{font-size:8px;}.cls-22{font-size:7px;}.cls-23{fill:#1cafe8;}.cls-24{fill:#fcfff5;fill-rule:evenodd;}</style></defs><title>safari-browser</title><text class="cls-1" transform="translate(165.8 137)">C<tspan class="cls-2" x="25.52" y="0">h</tspan><tspan class="cls-3" x="46.48" y="0">r</tspan><tspan x="60.05" y="0">o</tspan><tspan class="cls-4" x="79.7" y="0">m</tspan><tspan class="cls-2" x="111.48" y="0">e</tspan></text><rect class="cls-5" x="137.92" y="161.82" width="184.75" height="15.25"/><rect class="cls-6" x="309.07" y="167.04" width="10.85" height="4.81"/><rect class="cls-7" x="312.19" y="170.82" width="4.61" height="0.67"/><rect class="cls-7" x="310.38" y="167.4" width="0.8" height="0.8"/><rect class="cls-7" x="311.62" y="167.4" width="0.8" height="0.8"/><rect class="cls-7" x="312.86" y="167.4" width="0.79" height="0.8"/><rect class="cls-7" x="314.1" y="167.4" width="0.79" height="0.8"/><rect class="cls-7" x="315.33" y="167.4" width="0.79" height="0.8"/><rect class="cls-7" x="316.57" y="167.4" width="0.79" height="0.8"/><rect class="cls-7" x="317.81" y="167.4" width="0.8" height="0.8"/><rect class="cls-7" x="310.38" y="168.46" width="0.8" height="0.8"/><rect class="cls-7" x="311.62" y="168.46" width="0.8" height="0.8"/><rect class="cls-7" x="312.86" y="168.46" width="0.79" height="0.8"/><rect class="cls-7" x="314.1" y="168.46" width="0.79" height="0.8"/><rect class="cls-7" x="315.33" y="168.46" width="0.79" height="0.8"/><rect class="cls-7" x="316.57" y="168.46" width="0.79" height="0.8"/><rect class="cls-7" x="317.81" y="168.46" width="0.8" height="0.8"/><rect class="cls-7" x="310.38" y="169.52" width="0.8" height="0.8"/><rect class="cls-7" x="311.62" y="169.52" width="0.8" height="0.8"/><rect class="cls-7" x="312.86" y="169.52" width="0.79" height="0.8"/><rect class="cls-7" x="314.1" y="169.52" width="0.79" height="0.8"/><rect class="cls-7" x="315.33" y="169.52" width="0.79" height="0.8"/><rect class="cls-7" x="316.57" y="169.52" width="0.79" height="0.8"/><rect class="cls-7" x="317.81" y="169.52" width="0.8" height="0.8"/><path class="cls-8" d="M481,91.12v-43a4,4,0,0,0-4-4H25a4,4,0,0,0-4,4v43H481Z" transform="translate(-21 -44.17)"/><rect class="cls-9" x="234.79" y="184.97" width="36.19" height="7.76"/><text class="cls-10" transform="translate(237.84 190.06)">I<tspan class="cls-11" x="0.96" y="0">’</tspan><tspan x="1.67" y="0">m </tspan><tspan x="5.84" y="0">F</tspan><tspan x="7.65" y="0">eeling </tspan><tspan x="18.82" y="0">L</tspan><tspan x="20.64" y="0">uc</tspan><tspan x="24.61" y="0">k</tspan><tspan x="26.53" y="0">y</tspan></text><rect class="cls-9" x="191.61" y="184.97" width="36.19" height="7.76"/><text class="cls-10" transform="translate(199.31 190.06)">S<tspan x="1.99" y="0">ea</tspan><tspan x="5.9" y="0">r</tspan><tspan x="7.17" y="0">ch</tspan><tspan x="11.16" y="0"> </tspan><tspan x="11.88" y="0">W</tspan><tspan x="15.1" y="0">eb</tspan></text><text x="-21" y="-44.17"/><rect class="cls-12" y="31.3" width="460" height="0.31"/><rect class="cls-13" y="31.58" width="460" height="0.5"/><rect class="cls-13" x="5.14" y="14.09" width="24.96" height="12.23" rx="1.87" ry="1.87"/><rect class="cls-14" x="17.53" y="14.09" width="0.19" height="12.23"/><polygon class="cls-15" points="21.18 20.21 21.18 16.42 24.46 18.31 27.74 20.21 24.46 22.1 21.18 24 21.18 20.21"/><polygon class="cls-15" points="14.07 20.21 14.07 16.42 10.79 18.31 7.51 20.21 10.79 22.1 14.07 24 14.07 20.21"/><rect class="cls-13" x="33.59" y="14.04" width="12.31" height="12.31" rx="3.01" ry="3.01"/><path class="cls-15" d="M61.78,64.36l2.4-2.4a0.75,0.75,0,1,0-1-1l-2.4,2.4-2.4-2.4a0.75,0.75,0,1,0-1,1l2.4,2.4-2.4,2.4a0.75,0.75,0,1,0,1,1l2.4-2.4,2.4,2.4a0.75,0.75,0,1,0,1-1Z" transform="translate(-21 -44.17)"/><rect class="cls-13" x="49.43" y="14.04" width="12.31" height="12.31" rx="3.01" ry="3.01"/><path class="cls-15" d="M79.61,63.79H77.17V61.34a0.58,0.58,0,1,0-1.15,0v2.44H73.57a0.58,0.58,0,1,0,0,1.15H76v2.45a0.58,0.58,0,1,0,1.15,0V64.93h2.45A0.58,0.58,0,1,0,79.61,63.79Z" transform="translate(-21 -44.17)"/><rect class="cls-7" x="71.25" y="14.04" width="262.42" height="12.31"/><path class="cls-7" d="M472,64.36a6.14,6.14,0,0,1-6.12,6.15h-92.5a6.14,6.14,0,0,1-6.12-6.15h0a6.14,6.14,0,0,1,6.13-6.15h92.5A6.14,6.14,0,0,1,472,64.36h0Z" transform="translate(-21 -44.17)"/><circle class="cls-16" cx="340.06" cy="20.85" r="1.62"/><circle class="cls-17" cx="8.4" cy="7.76" r="3.26"/><circle class="cls-18" cx="18.25" cy="7.76" r="3.26"/><circle class="cls-19" cx="28.1" cy="7.76" r="3.26"/><path class="cls-7" d="M481,90.25v0.11H21V345.17a4,4,0,0,0,4,4H477a4,4,0,0,0,4-4V90.25h0Z" transform="translate(-21 -44.17)"/><path class="cls-6" d="M31.19,85.23a4.2,4.2,0,0,1,3.93,0h1.45a4.2,4.2,0,0,1,3.92,0H41.1V80.14h0v0a5.18,5.18,0,0,0-5,0H35.6a5.18,5.18,0,0,0-5,0v5.11h0.61ZM36.14,81a4.33,4.33,0,0,1,4.36-.25v3.65a5.14,5.14,0,0,0-4.36.22V81Zm-4.95-.26a4.33,4.33,0,0,1,4.34.26v3.6a5.14,5.14,0,0,0-4.34-.19V80.7Z" transform="translate(-21 -44.17)"/><text class="cls-20" transform="translate(32.5 41.03)">Apple</text><text class="cls-20" transform="translate(57.69 41.03)">.Mac</text><text class="cls-20" transform="translate(81.2 41.03)">Amazon</text><text class="cls-20" transform="translate(111.39 41.03)">eBay</text><text class="cls-20" transform="translate(134.95 41.03)">Y<tspan x="3.57" y="0">ahoo!</tspan></text><text class="cls-20" transform="translate(159.96 41.03)">News</text><polygon class="cls-6" points="178.63 38 180.61 38 179.62 39.53 178.63 41.07 177.64 39.53 176.65 38 178.63 38"/><path class="cls-6" d="M378.38,66.9l-1.64-1.64a3.48,3.48,0,0,0,.38-1.56,3.52,3.52,0,1,0-1.58,2.93l1.56,1.56A0.92,0.92,0,1,0,378.38,66.9Zm-7.14-3.2a2.36,2.36,0,1,1,2.36,2.36A2.36,2.36,0,0,1,371.24,63.7Z" transform="translate(-21 -44.17)"/><polygon class="cls-6" points="358.22 19.48 359.75 19.48 358.98 20.42 358.22 21.36 357.45 20.42 356.69 19.48 358.22 19.48"/><text class="cls-21" transform="translate(362.37 22.96)">Google</text><text class="cls-22" transform="translate(218.56 9.12)">Untitled</text><circle class="cls-23" cx="77.19" cy="20.19" r="4.84"/><path class="cls-24" d="M101.62,65.73a0.66,0.66,0,0,0-.23-0.08c-0.16,0-.33,0-0.51,0a0.25,0.25,0,0,0-.06-0.3,0.35,0.35,0,0,1-.05-0.08,0.11,0.11,0,0,0-.14-0.07,0.39,0.39,0,0,1-.31-0.07A0.84,0.84,0,0,0,99.71,65a0.46,0.46,0,0,1-.34-0.06,0.11,0.11,0,0,0-.1,0,2.36,2.36,0,0,0-.26.24,0.11,0.11,0,0,1-.14,0,0.19,0.19,0,0,0-.19,0,0.18,0.18,0,0,1-.28-0.17s0-.07,0-0.11c0-.19,0-0.21-0.21-0.21s-0.27,0-.17-0.26l0.07-.2c-0.18,0-.21,0-0.29.11l0,0.06a0.3,0.3,0,0,1-.36,0A0.53,0.53,0,0,1,97.25,64l0.06-.18a0.29,0.29,0,0,1,.3-0.18l0.27,0c0-.13.06-0.12,0.13-0.12h0.14a0.22,0.22,0,0,1,.2.15,1.07,1.07,0,0,0,.17.22l0,0a0.45,0.45,0,0,0,0-.12,1.26,1.26,0,0,0-.08-0.25,0.18,0.18,0,0,1,.05-0.23l0.06-.05c0.11-.1.23-0.21,0.13-0.36a0.53,0.53,0,0,0,.07-0.11,0.35,0.35,0,0,1,.14-0.21,0.09,0.09,0,0,0,0-.07c0-.15.1-0.18,0.17-0.25l0.06,0.12,0.15-.18v0a0.18,0.18,0,0,1-.2-0.12c-0.05-.11-0.11-0.11-0.2,0l-0.11.11a0.34,0.34,0,0,1,.31-0.28,0.18,0.18,0,0,0,.2-0.17,0.19,0.19,0,0,0-.16-0.17l-0.26-.15-0.2-.14a0.29,0.29,0,0,1-.08.11,0.15,0.15,0,0,1-.1-0.07,0.3,0.3,0,0,0-.24-0.1c-0.12,0-.16,0-0.13.15a0.33,0.33,0,0,0,.1.15,0.09,0.09,0,0,1,0,.13,0.14,0.14,0,0,0,0,.19l0,0.09c-0.11,0-.16,0-0.19-0.12A0.17,0.17,0,0,0,98,61.62l-0.3-.07a0.19,0.19,0,0,1-.1-0.3,0.84,0.84,0,0,1,.3-0.29,0.09,0.09,0,0,0,0-.16,0.48,0.48,0,0,1-.14-0.12,0.18,0.18,0,0,0-.17-0.1c-0.16,0-.19,0-0.18.15a0.28,0.28,0,0,0,.08.1v0a1.3,1.3,0,0,0-.41,0,0.57,0.57,0,0,1-.17-0.07,0.55,0.55,0,0,0-.48-0.16,0.1,0.1,0,0,1-.11,0,1.3,1.3,0,0,0-.19-0.18,0.31,0.31,0,0,0-.31,0,0.14,0.14,0,0,1-.22.07,0.15,0.15,0,0,0,0,0c0,0.09,0,.12-0.12.11a0.21,0.21,0,0,0-.14.08,0.91,0.91,0,0,0-.1.17l0,0.05-0.34.09a0.07,0.07,0,0,0,.06,0l0.37-.07c0.07,0,.13-0.15.22,0a0.22,0.22,0,0,1,.23.16,0.89,0.89,0,0,1,.1.55,0.23,0.23,0,0,0,0,.13A1.93,1.93,0,0,0,96,62a0.11,0.11,0,0,0-.15.09l-0.14.33a0.65,0.65,0,0,0,.09.64,1.37,1.37,0,0,1,.19.4c0,0.08,0,.16.06,0.23a1.7,1.7,0,0,0,.15.26,0.62,0.62,0,0,0,.11.1l0,0-0.26-.68,0,0a1.12,1.12,0,0,0,.06.15c0.13,0.2.26,0.39,0.38,0.59a0.49,0.49,0,0,1,.06.21,0.15,0.15,0,0,0,.08.13l0.49,0.28a0.18,0.18,0,0,0,.2,0,0.12,0.12,0,0,1,.17,0,0.48,0.48,0,0,0,.31.17,0.3,0.3,0,0,1,.27.14,0.85,0.85,0,0,0,.42.31,0.09,0.09,0,0,0,.15,0c0-.08.09-0.07,0.14,0a0.37,0.37,0,0,1,0,.48,0.36,0.36,0,0,0-.09.11,0.27,0.27,0,0,0,0,.31,0.09,0.09,0,0,1,0,.08,0.16,0.16,0,0,0,0,.26,0.67,0.67,0,0,1,.19.23,0.61,0.61,0,0,0,.44.45h0a0.09,0.09,0,0,1,.06.13,2.08,2.08,0,0,1-.45,1,0.39,0.39,0,0,0-.11.17,0.3,0.3,0,0,1-.11.17L98.52,69l0.2,0a0.14,0.14,0,0,0,.09,0,0.17,0.17,0,0,1,.13-0.13l0.13-.11a3.15,3.15,0,0,1,.29-0.22c0.14-.09.3-0.16,0.44-0.24a0.49,0.49,0,0,0,.05-0.06l0.15-.12a0.68,0.68,0,0,0,.09,0,2.49,2.49,0,0,0,.57-0.61,0.37,0.37,0,0,1,.09-0.09,1.2,1.2,0,0,0,.41-0.4l0.12-.28c0.08-.17.17-0.33,0.24-0.51a2.59,2.59,0,0,0,.11-0.36A0.09,0.09,0,0,0,101.62,65.73Z" transform="translate(-21 -44.17)"/><path class="cls-24" d="M98.4,60.25a0.15,0.15,0,0,0,.18.16,0.73,0.73,0,0,1,.25,0,2.56,2.56,0,0,1,.29.15l0.06,0.05a1.66,1.66,0,0,0,.15.18,1,1,0,0,0,.21.14,0.38,0.38,0,0,0,.35,0l-0.13-.14a0.18,0.18,0,0,1,0-.24l-0.11-.09a0.11,0.11,0,0,0,0-.18l-0.19-.07-0.22-.13A2.14,2.14,0,0,0,98.54,60a0.28,0.28,0,0,0-.1,0l0,0.08-0.12,0A0.5,0.5,0,0,1,98.4,60.25Z" transform="translate(-21 -44.17)"/><path class="cls-24" d="M99,60.81l-0.4-.15a2,2,0,0,0-.3-0.09,0.33,0.33,0,0,0-.17,0,0.1,0.1,0,0,0,0,.09,0.15,0.15,0,0,0,.09.07c0.13,0,.31-0.06.38,0.1l0.18,0L98.6,61l0.45,0.13a0.31,0.31,0,0,0,0-.13A0.46,0.46,0,0,0,99,60.94h0.14A0.34,0.34,0,0,0,99,60.81Z" transform="translate(-21 -44.17)"/><path class="cls-24" d="M98.54,64.1a0.39,0.39,0,0,0-.29.1h0.22a0.49,0.49,0,0,1,.36.11,0.2,0.2,0,0,0,.28,0,0.52,0.52,0,0,1-.18,0A0.81,0.81,0,0,0,98.54,64.1Z" transform="translate(-21 -44.17)"/><path class="cls-24" d="M98.14,60.25l0,0.16a0.18,0.18,0,0,0,.25-0.2c0-.08,0-0.12-0.1-0.1L98,60.18v0Z" transform="translate(-21 -44.17)"/><path class="cls-24" d="M99.36,64.29c-0.15-.06-0.14.11-0.22,0.15a0.47,0.47,0,0,0,.28.08l-0.05-.08,0.17,0A0.2,0.2,0,0,0,99.36,64.29Z" transform="translate(-21 -44.17)"/></svg>