<svg id="Layer_1" data-name="Layer 1" xmlns="http://www.w3.org/2000/svg" viewBox="0 0 2100 1684.8"><defs><style>.cls-1{fill:#fff;}</style></defs><title>desktop-outline</title><path class="cls-1" d="M1314.86-5376.05H-662.5a61.32,61.32,0,0,0-61.32,61.32v1327.47a61.32,61.32,0,0,0,61.32,61.32H83.84c-1.63,26-4.68,61.58-8.58,95.36-10.56,91.5-18.8,99.49-20.34,100.16-7.52,3.28-30.45,6.8-50.68,9.9C-32-3715-37-3713.71-37-3710.28v5.17c0,1.29,0,2.36,6.77,3.24v6.06c0,3.89,115.58,4.57,220.2,4.57,52.93,0,103-.17,134-0.19s81.07,0.19,134,.19c104.63,0,220.2-.68,220.2-4.57v-6.06c6.77-.88,6.77-1.94,6.77-3.24v-5.17c0-3.43-5-4.67-41.2-10.23-20.23-3.11-43.16-6.62-50.68-9.9-1.54-.67-9.78-8.66-20.34-100.16-3.9-33.78-7-69.39-8.58-95.36h750.69a61.32,61.32,0,0,0,61.32-61.32V-5314.73A61.32,61.32,0,0,0,1314.86-5376.05ZM675.2-3697.81c-4.53.83-20.53,2.06-72.86,2.81-35.08.5-82.29,0.75-144.35,0.75-32.08,0-62.59-.06-89.52-0.12-17.13,0-32.29-.07-44.47-0.07s-27.34,0-44.47.07c-26.92.05-57.43,0.12-89.51,0.12-62,0-109.26-.25-144.34-0.75-52.33-.75-68.33-2-72.86-2.81v-3.73c9.43,0.91,27.95,1.61,64.36,2.17,36.16,0.55,85.8.83,151.76,0.83,32.6,0,63.48-.06,90.72-0.12,17.13,0,32.25-.07,44.35-0.07s27.22,0,44.35.07c27.25,0.06,58.13.12,90.72,0.12,66,0,115.6-.27,151.76-0.83,36.41-.56,54.93-1.26,64.36-2.17v3.73ZM568.78-3830.12c11.36,98.42,19.91,102.15,22.71,103.37,8,3.49,30.2,6.89,51.67,10.19,15.3,2.35,34.18,5.25,37.81,7.06v3.21c-9.62,2.48-84.21,3.74-221.89,3.74-32.59,0-63.47-.06-90.72-0.12-17.13,0-32.25-.07-44.36-0.07s-27.22,0-44.36.07c-27.24.06-58.12,0.12-90.72,0.12-137.68,0-212.27-1.26-221.89-3.74v-3.21c3.62-1.81,22.5-4.71,37.81-7.06,21.47-3.3,43.68-6.7,51.67-10.19,2.81-1.22,11.35-4.95,22.72-103.37,3.92-33.93,7-69.73,8.61-95.82H560.17C561.8-3899.84,564.86-3864,568.78-3830.12Zm803.4-157.14a57.39,57.39,0,0,1-57.32,57.32H-662.5a57.39,57.39,0,0,1-57.32-57.32v-128.69h2092v128.69Zm-2092-132.69V-5314.73a57.39,57.39,0,0,1,57.32-57.32H1314.86a57.39,57.39,0,0,1,57.32,57.32v1194.78h-2092Z" transform="translate(723.82 5376.05)"/><path class="cls-1" d="M1286.18-5292.05h-1920a6,6,0,0,0-6,6v1080a6,6,0,0,0,6,6h1920a6,6,0,0,0,6-6v-1080A6,6,0,0,0,1286.18-5292.05Zm0,1086h-1920v-1080h1920v1080Z" transform="translate(723.82 5376.05)"/><path class="cls-1" d="M326.18-5323.89a8,8,0,0,0,8-8,8,8,0,0,0-8-8,8,8,0,0,0-8,8A8,8,0,0,0,326.18-5323.89Zm0-12a4,4,0,0,1,4,4,4,4,0,0,1-4,4,4,4,0,0,1-4-4A4,4,0,0,1,326.18-5335.89Z" transform="translate(723.82 5376.05)"/></svg>