<svg id="Layer_1" data-name="Layer 1" xmlns="http://www.w3.org/2000/svg" viewBox="0 0 460 302"><defs><style>.cls-1{fill:#d3d7dd;}.cls-2{fill:#e76a58;}.cls-3{fill:#fec052;}.cls-4{fill:#81d154;}.cls-5{fill:#fff;}.cls-6{fill:#e6e7e8;}.cls-7{font-size:7px;fill:#414042;}.cls-11,.cls-7{font-family:Arial;}.cls-8{fill:#a7a9ac;}.cls-9{fill:#d6d7d8;stroke:#a7a9ac;stroke-miterlimit:10;stroke-width:0.5px;}.cls-10,.cls-11{fill:#808285;}.cls-11{font-size:5px;}.cls-12,.cls-13{fill:#6d6e71;}.cls-13{fill-rule:evenodd;}.cls-14{fill:#f1f2f2;}</style></defs><title>explorer-browser</title><path class="cls-1" d="M481.5,99.43v-43a4,4,0,0,0-4-4H25.5a4,4,0,0,0-4,4v43h460Z" transform="translate(-21.5 -52.48)"/><circle class="cls-2" cx="432.29" cy="6.76" r="3.26"/><circle class="cls-3" cx="442.14" cy="6.76" r="3.26"/><circle class="cls-4" cx="451.99" cy="6.76" r="3.26"/><path class="cls-5" d="M481.45,95.56v0.11H21.5V350.48a4,4,0,0,0,4,4h452a4,4,0,0,0,4-4V95.56h0Z" transform="translate(-21.5 -52.48)"/><rect class="cls-1" y="25.3" width="460" height="18.75"/><rect class="cls-6" x="1.58" y="29.05" width="97.5" height="15.09"/><text class="cls-7" transform="translate(7.06 39.47)">Blank Page</text><rect class="cls-5" x="32.52" y="13.31" width="399.77" height="11.54"/><text x="-21.5" y="-52.48"/><path class="cls-8" d="M27,71.6a0.4,0.4,0,0,0,.11.27l0,0h0l3.71,3.71a0.48,0.48,0,0,0,.67.05l0.31-.31a0.48,0.48,0,0,0-.05-0.67l-2.4-2.4h5.94A0.62,0.62,0,0,0,36,71.72V71.14a0.62,0.62,0,0,0-.66-0.58H29.67l2.15-2.15a0.48,0.48,0,0,0,.05-0.67l-0.31-.31a0.48,0.48,0,0,0-.67.05l-3.71,3.71h0l0,0a0.4,0.4,0,0,0-.11.27V71.6Z" transform="translate(-21.5 -52.48)"/><circle class="cls-9" cx="25.02" cy="18.97" r="5.15"/><path class="cls-8" d="M49.53,71.42a0.27,0.27,0,0,0-.07-0.18l0,0h0l-2.49-2.49a0.32,0.32,0,0,0-.45,0l-0.21.21a0.32,0.32,0,0,0,0,.45l1.61,1.61h-4a0.42,0.42,0,0,0-.44.39v0.39a0.42,0.42,0,0,0,.44.39h3.82l-1.44,1.44a0.32,0.32,0,0,0,0,.45l0.21,0.21a0.32,0.32,0,0,0,.45,0l2.49-2.49h0l0,0a0.27,0.27,0,0,0,.07-0.18V71.42Z" transform="translate(-21.5 -52.48)"/><rect class="cls-8" x="99.17" y="29.05" width="15.33" height="15"/><polygon class="cls-10" points="96.28 38.55 94.88 37.15 96.28 35.74 95.78 35.25 94.38 36.65 92.98 35.25 92.48 35.74 93.89 37.15 92.48 38.55 92.98 39.05 94.38 37.64 95.78 39.05 96.28 38.55"/><text class="cls-11" transform="translate(35.34 20.86)">about:blank</text><polygon class="cls-12" points="407.96 18.94 409 18.94 408.48 19.53 407.96 20.12 407.45 19.53 406.94 18.94 407.96 18.94"/><path class="cls-13" d="M439.23,72.36a1.83,1.83,0,1,1-1.83-1.83v0.59l0.6-.47,0.6-.47-0.6-.47-0.6-.47v0.7a2.41,2.41,0,1,0,2.41,2.41h-0.58Z" transform="translate(-21.5 -52.48)"/><polygon class="cls-13" points="427.35 17.51 426.82 16.98 424.8 19 422.79 16.98 422.26 17.51 424.27 19.53 422.26 21.54 422.79 22.07 424.8 20.06 426.82 22.07 427.35 21.54 425.33 19.53 427.35 17.51"/><path class="cls-12" d="M423.46,69A2.45,2.45,0,0,0,421,71.46a2.42,2.42,0,0,0,.36,1.27l-1.7,1.7L420.23,75l1.66-1.66A2.45,2.45,0,1,0,423.46,69Zm0,4.28a1.83,1.83,0,1,1,1.83-1.83A1.83,1.83,0,0,1,423.46,73.29Z" transform="translate(-21.5 -52.48)"/><polygon class="cls-14" points="439.22 18.06 437.89 16.77 437 17.64 437 17.21 436.32 17.21 436.32 18.3 435.24 19.34 436.14 19.34 436.14 22.28 437.2 22.28 437.2 20.2 438.58 20.2 438.58 22.28 439.64 22.28 439.64 19.34 440.54 19.34 439.22 18.06"/><polygon class="cls-14" points="445.32 18.57 446.23 16.74 447.13 18.57 449.15 18.87 447.69 20.3 448.03 22.32 446.22 21.36 444.4 22.31 444.75 20.29 443.29 18.86 445.32 18.57"/><path class="cls-14" d="M478.85,72.4V71.61h-0.45a2.35,2.35,0,0,0-.41-1l0.32-.32-0.56-.55-0.32.32a2.38,2.38,0,0,0-1-.41V69.21h-0.78v0.45a2.36,2.36,0,0,0-1,.41l-0.32-.32-0.55.55,0.32,0.32a2.36,2.36,0,0,0-.41,1h-0.45V72.4h0.45a2.36,2.36,0,0,0,.41,1l-0.32.32,0.55,0.55,0.32-.32a2.36,2.36,0,0,0,1,.41V74.8h0.78V74.35a2.38,2.38,0,0,0,1-.41l0.32,0.32,0.56-.55L478,73.38a2.37,2.37,0,0,0,.41-1h0.45Zm-2.79,1.27A1.66,1.66,0,1,1,477.72,72,1.66,1.66,0,0,1,476.05,73.67Z" transform="translate(-21.5 -52.48)"/></svg>