<svg id="Layer_1" data-name="Layer 1" xmlns="http://www.w3.org/2000/svg" viewBox="0 0 460 302"><defs><style>.cls-1{fill:#d3d7dd;}.cls-2{fill:#e76a58;}.cls-3{fill:#fec052;}.cls-4{fill:#81d154;}.cls-11,.cls-5{fill:#fff;}.cls-6{fill:#e2e4e8;}.cls-7{fill:#6d6e71;}.cls-8{fill:#d6d7d8;stroke:#a7a9ac;stroke-miterlimit:10;stroke-width:0.5px;}.cls-9{fill:#a7a9ac;}.cls-10{fill:#ffa65c;}.cls-11,.cls-13{font-size:6px;}.cls-11,.cls-13,.cls-16{font-family:Arial;}.cls-12{fill:#d1d3d4;}.cls-13{fill:#414042;}.cls-14,.cls-19{opacity:0.3;}.cls-15{fill:#fcfff5;}.cls-15,.cls-17,.cls-18,.cls-19{fill-rule:evenodd;}.cls-16{font-size:5px;font-style:italic;}.cls-16,.cls-17{fill:#808285;}.cls-18,.cls-19{fill:#e6e7e8;}</style></defs><title>firefox-browser</title><path class="cls-1" d="M481.5,99.43v-43a4,4,0,0,0-4-4H25.5a4,4,0,0,0-4,4v43h460Z" transform="translate(-21.5 -52.48)"/><circle class="cls-2" cx="432.29" cy="6.76" r="3.26"/><circle class="cls-3" cx="442.14" cy="6.76" r="3.26"/><circle class="cls-4" cx="451.99" cy="6.76" r="3.26"/><path class="cls-5" d="M481.45,95.56v0.11H21.5V350.48a4,4,0,0,0,4,4h452a4,4,0,0,0,4-4V95.56h0Z" transform="translate(-21.5 -52.48)"/><rect class="cls-6" y="25.3" width="460" height="18.75"/><rect class="cls-6" x="4.33" y="11.2" width="99" height="16" rx="1" ry="1"/><rect class="cls-5" x="15.52" y="28.81" width="289.22" height="11.54"/><rect class="cls-5" x="308.33" y="28.81" width="75.17" height="11.54"/><path class="cls-7" d="M394.34,90.76a1.06,1.06,0,0,0,1.41-.12l1.56-1.46a3.67,3.67,0,0,0,1.94.55,3.3,3.3,0,1,0-3.52-3.3,3.1,3.1,0,0,0,.38,1.46l-1.64,1.54A0.91,0.91,0,0,0,394.34,90.76Zm4.91-2.11a2.22,2.22,0,1,1,2.36-2.21A2.29,2.29,0,0,1,399.25,88.64Z" transform="translate(-21.5 -52.48)"/><polygon class="cls-7" points="312.71 34.58 313.79 34.58 313.25 35.19 312.71 35.81 312.17 35.19 311.63 34.58 312.71 34.58"/><circle class="cls-8" cx="11.02" cy="34.58" r="7.69"/><path class="cls-9" d="M28,87.1a0.4,0.4,0,0,0,.11.27l0,0h0l3.71,3.71a0.48,0.48,0,0,0,.67.05l0.31-.31a0.48,0.48,0,0,0-.05-0.67l-2.4-2.4h5.94A0.62,0.62,0,0,0,37,87.22V86.64a0.62,0.62,0,0,0-.66-0.58H30.67l2.15-2.15a0.48,0.48,0,0,0,.05-0.67l-0.31-.31a0.48,0.48,0,0,0-.67.05l-3.71,3.71h0l0,0A0.4,0.4,0,0,0,28,87V87.1Z" transform="translate(-21.5 -52.48)"/><path class="cls-6" d="M138.87,78.68a0.92,0.92,0,0,1-.81,1H127.31a0.92,0.92,0,0,1-.81-1v-14a0.92,0.92,0,0,1,.81-1h10.75a0.92,0.92,0,0,1,.81,1v14Z" transform="translate(-21.5 -52.48)"/><polygon class="cls-9" points="114.19 17.82 111.38 17.82 111.38 15.01 110.37 15.01 110.37 17.82 107.56 17.82 107.56 18.83 110.37 18.83 110.37 21.64 111.38 21.64 111.38 18.83 114.19 18.83 114.19 17.82"/><path class="cls-10" d="M26,61.1H61.37a0.7,0.7,0,0,0,.7-0.7V52.48H25.5l-0.24,0v7.9A0.7,0.7,0,0,0,26,61.1Z" transform="translate(-21.5 -52.48)"/><text class="cls-11" transform="translate(9.56 6.52)">Firefox</text><polygon class="cls-5" points="31.34 3.38 32.9 3.38 32.12 4.36 31.34 5.35 30.56 4.36 29.78 3.38 31.34 3.38"/><path class="cls-9" d="M321.91,87.08a0.21,0.21,0,0,1-.06.14l0,0h0l-1.93,1.93a0.25,0.25,0,0,1-.35,0L319.38,89a0.25,0.25,0,0,1,0-.35l1.25-1.25h-3.1a0.32,0.32,0,0,1-.34-0.3v-0.3a0.33,0.33,0,0,1,.34-0.3h3l-1.12-1.12a0.25,0.25,0,0,1,0-.35l0.16-.16a0.25,0.25,0,0,1,.35,0l1.93,1.93h0l0,0a0.21,0.21,0,0,1,.06.14v0Z" transform="translate(-21.5 -52.48)"/><polygon class="cls-12" points="291.03 33.22 293.18 33.22 292.1 34.58 291.03 35.93 289.96 34.58 288.89 33.22 291.03 33.22"/><text class="cls-13" transform="translate(17.06 20.47)">New<tspan x="11.63" y="0"> </tspan><tspan x="13.06" y="0">T</tspan><tspan x="15.93" y="0">ab</tspan></text><rect class="cls-9" x="8.59" y="21.03" width="0.97" height="0.56"/><rect class="cls-9" x="10.44" y="14.4" width="1.19" height="0.56"/><rect class="cls-9" x="8.59" y="14.4" width="0.97" height="0.56"/><rect class="cls-9" x="10.44" y="21.03" width="1.19" height="0.56"/><rect class="cls-9" x="6.4" y="16.56" width="0.56" height="0.97"/><rect class="cls-9" x="6.4" y="18.41" width="0.56" height="1.19"/><polygon class="cls-9" points="6.96 15.69 6.96 14.95 7.72 14.95 7.72 14.4 6.41 14.4 6.41 15.69 6.96 15.69"/><rect class="cls-9" x="13.04" y="18.41" width="0.56" height="1.19"/><polygon class="cls-9" points="7.72 21.03 6.96 21.03 6.96 20.47 6.41 20.47 6.41 21.58 7.72 21.58 7.72 21.03"/><polygon class="cls-9" points="13.04 20.47 13.04 21.03 12.5 21.03 12.5 21.58 13.59 21.58 13.59 20.47 13.04 20.47"/><rect class="cls-9" x="13.04" y="16.56" width="0.56" height="0.97"/><polygon class="cls-9" points="12.5 14.95 13.04 14.95 13.04 15.69 13.59 15.69 13.59 14.4 12.5 14.4 12.5 14.95"/><g class="cls-14"><circle class="cls-9" cx="25.2" cy="34.67" r="3.81"/><path class="cls-15" d="M49.39,88.23a0.52,0.52,0,0,0-.18-0.06c-0.13,0-.26,0-0.4,0a0.2,0.2,0,0,0,0-.24l0-.07a0.09,0.09,0,0,0-.11-0.06,0.31,0.31,0,0,1-.24-0.05,0.66,0.66,0,0,0-.48-0.12,0.36,0.36,0,0,1-.27,0,0.09,0.09,0,0,0-.08,0,1.88,1.88,0,0,0-.2.19,0.08,0.08,0,0,1-.11,0,0.15,0.15,0,0,0-.15,0,0.14,0.14,0,0,1-.22-0.14s0-.06,0-0.09,0-.17-0.16-0.16-0.21,0-.14-0.2l0.06-.16c-0.15,0-.17,0-0.23.09l0,0a0.24,0.24,0,0,1-.29,0,0.41,0.41,0,0,1-.12-0.4l0-.14a0.23,0.23,0,0,1,.23-0.14l0.21,0c0-.1,0-0.1.1-0.09h0.11a0.17,0.17,0,0,1,.16.12,0.85,0.85,0,0,0,.14.17h0a0.35,0.35,0,0,0,0-.1,1,1,0,0,0-.06-0.2,0.14,0.14,0,0,1,0-.18l0,0c0.08-.08.18-0.16,0.1-0.28a0.43,0.43,0,0,0,.05-0.09,0.28,0.28,0,0,1,.11-0.17,0.07,0.07,0,0,0,0-.06c0-.12.08-0.14,0.14-0.2l0,0.09,0.12-.14v0a0.14,0.14,0,0,1-.16-0.1c0-.09-0.08-0.09-0.15,0l-0.09.09a0.27,0.27,0,0,1,.25-0.22A0.15,0.15,0,0,0,47.62,85a0.15,0.15,0,0,0-.13-0.13l-0.2-.12-0.16-.11a0.23,0.23,0,0,1-.06.09A0.12,0.12,0,0,1,47,84.72a0.23,0.23,0,0,0-.19-0.08c-0.09,0-.12,0-0.11.12a0.26,0.26,0,0,0,.08.12,0.07,0.07,0,0,1,0,.1,0.11,0.11,0,0,0,0,.15l0,0.07c-0.09,0-.13,0-0.15-0.09A0.13,0.13,0,0,0,46.52,85l-0.23-.06a0.15,0.15,0,0,1-.08-0.24,0.65,0.65,0,0,1,.24-0.23,0.09,0.09,0,0,0,0-.07,0.09,0.09,0,0,0,0-.06,0.38,0.38,0,0,1-.11-0.09,0.14,0.14,0,0,0-.14-0.08c-0.12,0-.15,0-0.14.12a0.21,0.21,0,0,0,.06.08v0a1,1,0,0,0-.32,0,0.44,0.44,0,0,1-.13-0.05,0.44,0.44,0,0,0-.38-0.13,0.08,0.08,0,0,1-.09,0,1,1,0,0,0-.15-0.15,0.25,0.25,0,0,0-.24,0,0.11,0.11,0,0,1-.17.06l0,0c0,0.07,0,.1-0.1.09a0.17,0.17,0,0,0-.11.06,0.71,0.71,0,0,0-.08.14l0,0-0.27.07a0.06,0.06,0,0,0,0,0l0.29-.06c0.06,0,.1-0.12.18,0a0.17,0.17,0,0,1,.18.12,0.7,0.7,0,0,1,.08.44,0.18,0.18,0,0,0,0,.11,1.46,1.46,0,0,0,.08.14,0.09,0.09,0,0,0-.12.07l-0.11.26a0.51,0.51,0,0,0,.07.5,1.1,1.1,0,0,1,.15.31c0,0.06,0,.13,0,0.18a1.31,1.31,0,0,0,.12.21,0.5,0.5,0,0,0,.09.08l0,0L45,86.39h0a0.94,0.94,0,0,0,0,.12L45.41,87a0.39,0.39,0,0,1,0,.16,0.12,0.12,0,0,0,.06.11l0.38,0.22a0.14,0.14,0,0,0,.16,0,0.1,0.1,0,0,1,.13,0,0.38,0.38,0,0,0,.25.13,0.23,0.23,0,0,1,.21.11A0.67,0.67,0,0,0,47,88a0.07,0.07,0,0,0,.12,0c0-.06.07-0.06,0.11,0a0.29,0.29,0,0,1,0,.38,0.28,0.28,0,0,0-.07.09,0.21,0.21,0,0,0,0,.24,0.07,0.07,0,0,1,0,.06,0.12,0.12,0,0,0,0,.2,0.53,0.53,0,0,1,.15.18,0.48,0.48,0,0,0,.34.35h0a0.07,0.07,0,0,1,0,.1,1.64,1.64,0,0,1-.36.78,0.3,0.3,0,0,0-.08.14,0.24,0.24,0,0,1-.09.14L47,90.8h0.15a0.11,0.11,0,0,0,.07,0,0.13,0.13,0,0,1,.1-0.1l0.11-.09a2.49,2.49,0,0,1,.23-0.17L48,90.23l0,0,0.12-.1,0.07,0a2,2,0,0,0,.45-0.48,0.29,0.29,0,0,1,.07-0.07A0.94,0.94,0,0,0,49,89.19l0.1-.22c0.06-.13.13-0.26,0.19-0.4a2,2,0,0,0,.08-0.28A0.07,0.07,0,0,0,49.39,88.23Z" transform="translate(-21.5 -52.48)"/><path class="cls-15" d="M46.86,83.92A0.12,0.12,0,0,0,47,84a0.58,0.58,0,0,1,.2,0,1.94,1.94,0,0,1,.23.12l0,0a1.21,1.21,0,0,0,.12.14,0.77,0.77,0,0,0,.16.11,0.3,0.3,0,0,0,.28,0l-0.1-.11a0.15,0.15,0,0,1,0-.19l-0.08-.07a0.08,0.08,0,0,0,0-.15l-0.15-.06-0.17-.1A1.66,1.66,0,0,0,47,83.72l-0.08,0,0,0.07-0.09,0A0.4,0.4,0,0,1,46.86,83.92Z" transform="translate(-21.5 -52.48)"/><path class="cls-15" d="M47.34,84.36L47,84.23l-0.24-.07a0.26,0.26,0,0,0-.14,0,0.08,0.08,0,0,0,0,.07,0.12,0.12,0,0,0,.07.05c0.1,0,.24,0,0.3.08h0.15L47,84.53l0.35,0.1a0.24,0.24,0,0,0,0-.1,0.36,0.36,0,0,0-.1-0.07h0.11A0.28,0.28,0,0,0,47.34,84.36Z" transform="translate(-21.5 -52.48)"/><path class="cls-15" d="M47,86.95a0.31,0.31,0,0,0-.23.08h0.17a0.39,0.39,0,0,1,.28.09,0.16,0.16,0,0,0,.22,0,0.41,0.41,0,0,1-.14,0A0.64,0.64,0,0,0,47,86.95Z" transform="translate(-21.5 -52.48)"/><text x="-21.5" y="-52.48"/><path class="cls-15" d="M47.62,87.1c-0.12,0-.11.09-0.17,0.12a0.37,0.37,0,0,0,.22.06l0-.06,0.13,0A0.15,0.15,0,0,0,47.62,87.1Z" transform="translate(-21.5 -52.48)"/></g><text class="cls-16" transform="translate(31.34 36.58)">Search or enter address</text><text class="cls-16" transform="translate(316.34 36.78)">Google</text><polygon class="cls-7" points="441.53 33.67 442.88 33.67 442.21 34.45 441.53 35.22 440.86 34.45 440.18 33.67 441.53 33.67"/><polygon class="cls-17" points="402.3 34.56 402.3 30.63 399.82 30.63 399.82 34.56 397.83 34.56 399.44 36.41 401.06 38.26 402.67 36.41 404.29 34.56 402.3 34.56"/><path class="cls-17" d="M438.26,85.1l-2.63,2.64v3h1.91V87.87h1.7v2.82h1.91v-3l-2.63-2.64A0.18,0.18,0,0,0,438.26,85.1Z" transform="translate(-21.5 -52.48)"/><path class="cls-17" d="M442.17,86.88l-3.67-3.67a0.17,0.17,0,0,0-.25,0l-3.67,3.67a0.17,0.17,0,0,0,0,.25l0.57,0.57,3.1-3.1a0.18,0.18,0,0,1,.25,0l3.1,3.1,0.57-.57A0.17,0.17,0,0,0,442.17,86.88Z" transform="translate(-21.5 -52.48)"/><path class="cls-17" d="M458.8,90.37a0.33,0.33,0,0,1-.31.34h-8.56a0.33,0.33,0,0,1-.31-0.34V83.48a0.33,0.33,0,0,1,.31-0.34h8.56a0.33,0.33,0,0,1,.31.34v6.88Z" transform="translate(-21.5 -52.48)"/><polygon class="cls-18" points="434.69 33.71 436.26 33.94 435.13 35.04 435.4 36.6 434 35.86 432.6 36.6 432.86 35.04 431.73 33.94 433.3 33.71 434 32.29 434.69 33.71"/><path class="cls-19" d="M449.93,90.71h2.35V83.14h-2.35a0.33,0.33,0,0,0-.31.34v6.88A0.33,0.33,0,0,0,449.93,90.71Z" transform="translate(-21.5 -52.48)"/></svg>